<?xml version="1.0" standalone="no"?>
<!DOCTYPE svg PUBLIC "-//W3C//DTD SVG 20010904//EN"
 "http://www.w3.org/TR/2001/REC-SVG-20010904/DTD/svg10.dtd">
<svg version="1.0" xmlns="http://www.w3.org/2000/svg"
 width="999.000000pt" height="999.000000pt" viewBox="0 0 999.000000 999.000000"
 preserveAspectRatio="xMidYMid meet">
<metadata>
Created by potrace 1.11, written by Peter Selinger 2001-2013
</metadata>
<g transform="translate(0.000000,999.000000) scale(0.100000,-0.100000)"
fill="#000000" stroke="none">
<path d="M4982 7773 c-1 -10 -34 -119 -75 -243 l-73 -225 -257 0 c-141 0 -257
-2 -257 -5 1 -5 93 -73 129 -95 9 -5 18 -12 21 -15 3 -3 21 -17 40 -30 19 -13
37 -27 40 -30 3 -4 32 -25 65 -48 33 -23 73 -52 89 -65 l29 -23 -39 -115 c-21
-63 -39 -118 -40 -124 -1 -5 -12 -39 -24 -75 -12 -36 -23 -72 -25 -80 -2 -8
-8 -28 -14 -43 -13 -32 -15 -68 -3 -51 6 9 91 73 227 170 11 7 56 40 99 73
l79 58 51 -35 c28 -20 79 -58 113 -84 34 -27 67 -48 72 -48 5 0 11 -3 13 -7 4
-11 85 -73 94 -73 5 0 20 -12 36 -27 15 -14 31 -24 34 -20 3 3 -29 113 -71
243 l-78 238 29 23 c16 13 104 78 195 143 92 66 171 126 177 133 8 9 -41 12
-239 12 -138 0 -254 2 -258 5 -4 3 -23 50 -40 105 -18 55 -36 109 -40 120 -5
11 -25 73 -46 138 -36 112 -49 137 -53 100z"/>
<path d="M2831 7215 c2 -5 -14 -61 -35 -124 -21 -63 -39 -119 -41 -125 -1 -6
-5 -18 -8 -26 -3 -8 -20 -60 -38 -115 l-32 -100 -253 1 c-140 0 -254 -3 -254
-7 0 -5 8 -13 18 -18 16 -8 128 -90 179 -129 12 -9 31 -24 43 -32 70 -48 165
-123 164 -128 -1 -4 -32 -101 -69 -217 -38 -115 -70 -214 -71 -220 -1 -5 -6
-19 -10 -29 -6 -15 -4 -17 7 -11 14 8 104 72 124 88 6 4 35 25 65 47 30 22 60
43 65 47 6 5 33 24 60 43 28 19 59 43 71 52 20 18 22 17 100 -39 43 -31 81
-60 84 -63 3 -3 13 -9 22 -15 9 -5 64 -45 122 -87 58 -43 108 -78 110 -78 2 0
-10 42 -26 93 -16 50 -30 97 -32 102 -4 19 -47 150 -56 170 -5 11 -11 29 -13
40 -3 11 -10 35 -15 52 l-10 32 184 135 c101 75 193 140 204 146 11 6 20 14
20 19 0 4 -111 7 -247 7 -151 -1 -251 3 -258 9 -6 6 -33 78 -59 160 -26 83
-50 157 -53 165 -4 8 -7 17 -8 20 -17 61 -41 127 -48 135 -5 7 -7 7 -6 0z"/>
<path d="M7132 7167 c-58 -191 -138 -424 -147 -432 -7 -6 -106 -10 -254 -9
-133 0 -244 -3 -246 -7 -4 -5 61 -55 124 -94 9 -5 18 -12 21 -15 3 -3 26 -21
53 -40 26 -19 56 -42 67 -50 11 -8 36 -26 56 -40 72 -51 88 -66 78 -81 -4 -8
-9 -18 -10 -24 -1 -5 -9 -30 -17 -55 -8 -25 -34 -103 -57 -175 -22 -71 -43
-136 -45 -143 -3 -7 -5 -16 -6 -20 0 -4 -5 -14 -10 -23 -4 -9 -6 -19 -3 -22 3
-3 98 62 210 144 l206 149 46 -34 c26 -19 54 -41 63 -48 9 -7 23 -17 32 -23 8
-5 73 -51 143 -102 71 -51 129 -91 131 -89 2 1 -4 23 -13 47 -8 24 -17 51 -19
59 -2 8 -24 78 -50 155 -26 77 -48 147 -50 155 -2 8 -8 27 -13 41 -12 29 -9
32 68 84 25 17 56 40 70 53 14 12 28 22 31 22 3 0 15 8 27 18 11 10 61 47 111
82 50 35 91 67 91 70 0 4 -109 6 -242 5 -239 -1 -278 3 -278 28 0 7 -11 46
-25 87 -14 41 -27 82 -29 90 -12 46 -88 266 -94 272 -4 4 -13 -12 -20 -35z"/>
<path d="M1252 5603 c-7 -21 -14 -46 -17 -56 -2 -9 -7 -22 -10 -27 -3 -5 -8
-18 -10 -27 -4 -22 -106 -337 -111 -342 -1 -1 -119 -3 -260 -2 -246 0 -256 0
-235 -17 13 -9 32 -25 42 -34 11 -10 23 -18 28 -18 5 0 11 -4 13 -8 2 -5 26
-23 53 -42 28 -19 55 -38 60 -42 36 -29 90 -69 139 -103 31 -21 56 -43 56 -48
0 -5 -34 -114 -75 -241 -41 -128 -75 -235 -75 -240 0 -4 18 6 39 23 21 17 43
31 49 31 6 0 12 4 14 8 2 5 57 47 123 95 66 47 128 92 138 101 9 9 21 16 26
16 5 0 11 6 14 13 4 14 22 3 237 -153 159 -116 205 -146 198 -134 -11 18 -160
485 -157 488 2 2 56 40 119 86 184 133 265 194 268 202 2 5 8 6 13 2 5 -3 9
-1 9 5 0 7 -83 10 -251 10 -138 -1 -255 3 -259 7 -5 5 -30 77 -56 159 -25 83
-50 159 -54 170 -18 44 -23 61 -26 77 -2 10 -9 32 -16 48 l-13 31 -13 -38z"/>
<path d="M8701 5575 c-12 -38 -25 -77 -28 -85 -3 -8 -7 -19 -8 -25 -9 -36 -98
-301 -104 -308 -4 -4 -121 -8 -259 -8 -139 -1 -252 -3 -252 -4 0 -2 91 -70
203 -151 111 -81 204 -148 206 -150 2 -2 -31 -109 -74 -239 -42 -129 -74 -241
-72 -248 4 -9 6 -9 6 1 1 6 6 12 12 12 6 0 17 6 24 13 26 22 39 33 100 75 145
101 201 141 216 156 9 9 21 16 27 16 5 0 12 5 14 11 5 14 39 -2 70 -31 10 -9
44 -35 76 -56 31 -21 59 -41 62 -44 3 -3 46 -35 95 -70 50 -35 96 -70 104 -78
7 -7 15 -11 18 -8 3 2 -29 110 -71 239 -42 129 -76 238 -76 243 0 5 10 16 21
24 26 18 90 66 106 80 7 5 15 10 17 10 3 0 14 7 23 15 30 24 156 116 195 143
21 13 38 28 38 33 0 4 -113 7 -252 7 l-252 0 -81 248 -82 249 -22 -70z"/>
<path d="M676 3469 c-3 -8 -37 -115 -77 -239 -40 -124 -76 -228 -81 -231 -5
-3 -123 -5 -264 -5 -276 1 -264 4 -193 -46 359 -258 374 -270 352 -292 -4 -3
-8 -12 -9 -19 -1 -7 -25 -82 -53 -167 -28 -85 -51 -158 -51 -162 0 -5 -9 -30
-19 -58 -15 -39 -16 -50 -6 -50 8 0 18 6 22 13 4 6 16 17 25 22 17 11 229 164
312 227 l50 37 27 -22 c15 -12 59 -44 98 -72 39 -27 70 -53 71 -57 0 -5 5 -8
11 -8 12 0 186 -125 202 -145 7 -8 5 8 -8 60 -1 6 -5 17 -8 25 -3 8 -26 78
-51 155 -58 184 -60 189 -61 197 0 3 -3 10 -7 14 -17 16 -8 55 15 64 12 6 72
47 134 93 61 45 121 89 133 97 78 54 118 89 107 92 -7 2 -121 3 -254 3 -276
-1 -247 -12 -282 100 -58 182 -123 380 -127 384 -2 2 -6 -2 -8 -10z"/>
<path d="M9250 3318 c-29 -90 -53 -165 -54 -168 0 -3 -12 -39 -26 -80 l-26
-75 -244 -2 c-135 -1 -251 -2 -259 -2 -12 -1 69 -64 179 -141 117 -81 229
-168 223 -174 -4 -3 -8 -12 -9 -19 -1 -7 -19 -64 -40 -127 -21 -63 -39 -117
-39 -120 -13 -49 -19 -67 -28 -77 -5 -7 -7 -13 -3 -13 3 0 -3 -24 -14 -52 -25
-66 -26 -86 -4 -63 9 9 29 24 43 33 14 9 31 20 36 25 6 4 51 37 100 73 50 35
98 71 108 79 9 8 22 15 27 15 6 0 10 5 10 10 0 6 5 10 10 10 6 0 20 9 32 20
21 20 58 27 58 12 0 -4 15 -16 33 -27 17 -10 34 -21 37 -25 3 -3 28 -22 55
-41 28 -18 52 -36 55 -39 3 -3 48 -37 100 -74 52 -38 101 -74 109 -80 12 -9
12 -8 4 9 -6 11 -11 25 -12 30 -1 13 -45 152 -97 310 -24 72 -44 133 -44 137
0 4 46 40 103 80 56 40 107 76 112 81 6 4 51 37 100 73 50 36 91 69 93 72 1 4
-113 7 -254 7 l-256 0 -13 38 c-7 20 -10 37 -8 37 3 0 1 6 -4 13 -5 6 -15 32
-22 57 -7 25 -17 54 -21 65 -5 11 -25 72 -45 135 -20 63 -40 120 -44 128 -4 8
-28 -51 -61 -150z"/>
</g>
</svg>
