<?xml version="1.0" encoding="utf-8"?>
<svg version="1.1" id="Ebene_1" xmlns="http://www.w3.org/2000/svg" xmlns:xlink="http://www.w3.org/1999/xlink" x="0px" y="0px"
	 viewBox="0 0 998.9 561.1" style="enable-background:new 0 0 998.9 561.1;" xml:space="preserve">
<style type="text/css">
	.st0{fill:#79cde5;}
</style>
<polygon class="st0" points="525.5,80.3 567.8,49.6 515.6,49.6 499.4,0 483.3,49.6 431.1,49.6 473.3,80.3 457.2,130 499.4,99.3 
	541.7,130 "/>
<polygon class="st0" points="94.4,511.4 136.7,480.8 84.5,480.8 68.3,431.1 52.2,480.8 0,480.8 42.2,511.4 26.1,561.1 68.3,530.4 
	110.6,561.1 "/>
<polygon class="st0" points="310,138.1 352.2,107.4 300,107.4 283.9,57.8 267.8,107.4 215.6,107.4 257.8,138.1 241.7,187.7 
	283.9,157.1 326.1,187.7 "/>
<polygon class="st0" points="152.7,295.9 195,265.2 142.8,265.2 126.6,215.6 110.5,265.2 58.3,265.2 100.5,295.9 84.4,345.5 
	126.6,314.9 168.9,345.5 "/>
<polygon class="st0" points="904.5,511.4 862.2,480.8 914.4,480.8 930.6,431.1 946.7,480.8 998.9,480.8 956.7,511.4 972.8,561.1 
	930.6,530.4 888.3,561.1 "/>
<polygon class="st0" points="688.9,138.1 646.7,107.4 698.9,107.4 715,57.8 731.1,107.4 783.3,107.4 741.1,138.1 757.2,187.7 
	715,157.1 672.8,187.7 "/>
<polygon class="st0" points="846.2,295.9 803.9,265.2 856.1,265.2 872.3,215.6 888.4,265.2 940.6,265.2 898.4,295.9 914.5,345.5 
	872.3,314.9 830,345.5 "/>
</svg>
